<?xml version="1.0" encoding="UTF-8"?>
<svg width="20px" height="20px" viewBox="0 0 20 20" version="1.1" xmlns="http://www.w3.org/2000/svg" xmlns:xlink="http://www.w3.org/1999/xlink">
    <!-- Generator: sketchtool 59.1 (101010) - https://sketch.com -->
    <title>3A391C32-3A11-4F79-B042-5536B8745418@2x</title>
    <desc>Created with sketchtool.</desc>
    <g id="Page-1" stroke="none" stroke-width="1" fill="none" fill-rule="evenodd">
        <g id="Add-New-/-view-TC-Plates" transform="translate(-791.000000, -377.000000)" fill="#000000" fill-rule="nonzero">
            <g id="Group-4" transform="translate(362.000000, 257.000000)">
                <g id="spring-calendar-rounded-symbol-copy-3" transform="translate(429.000000, 120.000000)">
                    <path d="M16.4470588,18.4558824 L3.18470588,18.4558824 C2.04058824,18.4558824 1.02941176,17.88 0.42,17.0064706 C0.502352941,18.4658824 1.70470588,19.6323529 3.18470588,19.6323529 L16.4470588,19.6323529 C17.9282353,19.6323529 19.1305882,18.4676471 19.2123529,17.0064706 C18.6029412,17.88 17.5917647,18.4558824 16.4470588,18.4558824 Z" id="Path"></path>
                    <path d="M16.4470588,0.808823529 L16.0458824,0.808823529 L16.0458824,0.588235294 C16.0458824,0.263529412 15.7829412,0 15.4576471,0 C15.1329412,0 14.8694118,0.263529412 14.8694118,0.588235294 L14.8694118,0.808823529 L13.7888235,0.808823529 L13.7888235,0.588235294 C13.7888235,0.263529412 13.5252941,0 13.2005882,0 C12.8758824,0 12.6123529,0.263529412 12.6123529,0.588235294 L12.6123529,0.808823529 L11.5317647,0.808823529 L11.5317647,0.588235294 C11.5317647,0.263529412 11.2688235,0 10.9435294,0 C10.6188235,0 10.3552941,0.263529412 10.3552941,0.588235294 L10.3552941,0.808823529 L9.27470588,0.808823529 L9.27470588,0.588235294 C9.27470588,0.263529412 9.01117647,0 8.68647059,0 C8.36176471,0 8.09823529,0.263529412 8.09823529,0.588235294 L8.09823529,0.808823529 L7.01764706,0.808823529 L7.01764706,0.588235294 C7.01764706,0.263529412 6.75411765,0 6.42941176,0 C6.10470588,0 5.84117647,0.263529412 5.84117647,0.588235294 L5.84117647,0.808823529 L4.76117647,0.808823529 L4.76117647,0.588235294 C4.76117647,0.263529412 4.49764706,0 4.17294118,0 C3.84823529,0 3.58470588,0.263529412 3.58470588,0.588235294 L3.58470588,0.808823529 L3.18352941,0.808823529 C1.65117647,0.808823529 0.404117647,2.05588235 0.404117647,3.58882353 L0.404117647,15.0870588 C0.404117647,16.6194118 1.65117647,17.8676471 3.18470588,17.8676471 L16.4470588,17.8676471 C17.98,17.8676471 19.2282353,16.6205882 19.2282353,15.0870588 L19.2282353,3.58882353 C19.2276471,2.05588235 17.9805882,0.808823529 16.4470588,0.808823529 Z M15.1647059,0.588235294 C15.1647059,0.425882353 15.2964706,0.294117647 15.4588235,0.294117647 C15.6211765,0.294117647 15.7529412,0.425882353 15.7529412,0.588235294 L15.7529412,4.40117647 C15.7529412,4.56352941 15.6211765,4.69529412 15.4588235,4.69529412 C15.2964706,4.69529412 15.1647059,4.56352941 15.1647059,4.40117647 L15.1647059,0.588235294 Z M12.9076471,0.588235294 C12.9076471,0.425882353 13.04,0.294117647 13.2017647,0.294117647 C13.3641176,0.294117647 13.4958824,0.425882353 13.4958824,0.588235294 L13.4958824,4.40117647 C13.4958824,4.56352941 13.3641176,4.69529412 13.2017647,4.69529412 C13.04,4.69529412 12.9076471,4.56352941 12.9076471,4.40117647 L12.9076471,0.588235294 Z M10.6505882,0.588235294 C10.6505882,0.425882353 10.7823529,0.294117647 10.9447059,0.294117647 C11.1070588,0.294117647 11.2388235,0.425882353 11.2388235,0.588235294 L11.2388235,4.40117647 C11.2388235,4.56352941 11.1070588,4.69529412 10.9447059,4.69529412 C10.7823529,4.69529412 10.6505882,4.56352941 10.6505882,4.40117647 L10.6505882,0.588235294 Z M8.39352941,0.588235294 C8.39352941,0.425882353 8.52529412,0.294117647 8.68764706,0.294117647 C8.85,0.294117647 8.98176471,0.425882353 8.98176471,0.588235294 L8.98176471,4.40117647 C8.98176471,4.56352941 8.85,4.69529412 8.68764706,4.69529412 C8.52529412,4.69529412 8.39352941,4.56352941 8.39352941,4.40117647 L8.39352941,0.588235294 Z M6.13647059,0.588235294 C6.13647059,0.425882353 6.26823529,0.294117647 6.43058824,0.294117647 C6.59294118,0.294117647 6.72470588,0.425882353 6.72470588,0.588235294 L6.72470588,4.40117647 C6.72470588,4.56352941 6.59294118,4.69529412 6.43058824,4.69529412 C6.26823529,4.69529412 6.13647059,4.56352941 6.13647059,4.40117647 L6.13647059,0.588235294 Z M3.87941176,0.588235294 C3.87941176,0.425882353 4.01117647,0.294117647 4.17352941,0.294117647 C4.33588235,0.294117647 4.46764706,0.425882353 4.46764706,0.588235294 L4.46764706,4.40117647 C4.46764706,4.56352941 4.33588235,4.69529412 4.17352941,4.69529412 C4.01117647,4.69529412 3.87941176,4.56352941 3.87941176,4.40117647 L3.87941176,0.588235294 Z M17.8111765,15.0870588 C17.8111765,15.8382353 17.1994118,16.45 16.4476471,16.45 L3.18470588,16.45 C2.43294118,16.45 1.82117647,15.8382353 1.82117647,15.0870588 L1.82117647,3.58882353 C1.82117647,2.83705882 2.43294118,2.22529412 3.18470588,2.22529412 L3.58588235,2.22529412 L3.58588235,3.70352941 C3.38647059,3.87176471 3.25647059,4.12058824 3.25647059,4.40176471 C3.25647059,4.90764706 3.66764706,5.31941176 4.17411765,5.31941176 C4.68058824,5.31941176 5.09176471,4.90823529 5.09176471,4.40176471 C5.09176471,4.12058824 4.96176471,3.87235294 4.76235294,3.70352941 L4.76235294,2.22529412 L5.84294118,2.22529412 L5.84294118,3.70352941 C5.64352941,3.87176471 5.51352941,4.12058824 5.51352941,4.40176471 C5.51352941,4.90764706 5.92470588,5.31941176 6.43117647,5.31941176 C6.93764706,5.31941176 7.34882353,4.90823529 7.34882353,4.40176471 C7.34882353,4.12058824 7.21882353,3.87235294 7.01941176,3.70352941 L7.01941176,2.22529412 L8.1,2.22529412 L8.1,3.70352941 C7.90058824,3.87176471 7.77058824,4.12058824 7.77058824,4.40176471 C7.77058824,4.90764706 8.18176471,5.31941176 8.68823529,5.31941176 C9.19470588,5.31941176 9.60588235,4.90823529 9.60588235,4.40176471 C9.60588235,4.12058824 9.47588235,3.87235294 9.27647059,3.70352941 L9.27647059,2.22529412 L10.3570588,2.22529412 L10.3570588,3.70352941 C10.1576471,3.87176471 10.0276471,4.12058824 10.0276471,4.40176471 C10.0276471,4.90764706 10.4388235,5.31941176 10.9452941,5.31941176 C11.4517647,5.31941176 11.8635294,4.90823529 11.8635294,4.40176471 C11.8635294,4.12058824 11.7329412,3.87235294 11.5335294,3.70352941 L11.5335294,2.22529412 L12.6141176,2.22529412 L12.6141176,3.70352941 C12.4147059,3.87176471 12.2847059,4.12058824 12.2847059,4.40176471 C12.2847059,4.90764706 12.6958824,5.31941176 13.2023529,5.31941176 C13.7088235,5.31941176 14.12,4.90823529 14.12,4.40176471 C14.12,4.12058824 13.99,3.87235294 13.7905882,3.70352941 L13.7905882,2.22529412 L14.8711765,2.22529412 L14.8711765,3.70352941 C14.6717647,3.87176471 14.5417647,4.12058824 14.5417647,4.40176471 C14.5417647,4.90764706 14.9523529,5.31941176 15.4594118,5.31941176 C15.9664706,5.31941176 16.3776471,4.90823529 16.3776471,4.40176471 C16.3776471,4.12058824 16.2476471,3.87235294 16.0476471,3.70352941 L16.0476471,2.22529412 L16.4488235,2.22529412 C17.2,2.22529412 17.8117647,2.83705882 17.8117647,3.58882353 L17.8111765,15.0870588 L17.8111765,15.0870588 Z" id="Shape"></path>
                    <rect id="Rectangle" x="7.10235294" y="8.12" width="2.13235294" height="2.13235294"></rect>
                    <rect id="Rectangle" x="10.3976471" y="8.12" width="2.13117647" height="2.13235294"></rect>
                    <rect id="Rectangle" x="13.6917647" y="8.12" width="2.13235294" height="2.13235294"></rect>
                    <rect id="Rectangle" x="3.80764706" y="11.4141176" width="2.13176471" height="2.13235294"></rect>
                    <rect id="Rectangle" x="7.10235294" y="11.4141176" width="2.13235294" height="2.13235294"></rect>
                    <rect id="Rectangle" x="10.3970588" y="11.4141176" width="2.13176471" height="2.13235294"></rect>
                    <rect id="Rectangle" x="13.6917647" y="11.4141176" width="2.13176471" height="2.13235294"></rect>
                </g>
            </g>
        </g>
    </g>
</svg>